<svg width="24" height="24" viewBox="0 0 24 24" fill="none" xmlns="http://www.w3.org/2000/svg">
<path d="M21.81 10.25C21.75 10.21 21.25 9.81996 20.17 9.81996C19.89 9.81996 19.61 9.84996 19.33 9.89996C19.12 8.49996 17.95 7.78996 17.9 7.75996L17.61 7.58996L17.43 7.85996C17.19 8.21996 17 8.62996 16.92 9.04996C16.72 9.84996 16.84 10.61 17.25 11.26C16.76 11.54 15.96 11.61 15.79 11.61H2.62C2.28 11.61 2 11.89 2 12.24C2 13.39 2.18 14.54 2.58 15.62C3.03 16.81 3.71 17.69 4.58 18.23C5.56 18.83 7.17 19.17 9 19.17C9.79 19.17 10.61 19.1 11.42 18.95C12.54 18.75 13.62 18.36 14.61 17.79C15.4299 17.3211 16.1638 16.7157 16.78 16C17.83 14.83 18.45 13.5 18.9 12.35H19.09C20.23 12.35 20.94 11.89 21.33 11.5C21.59 11.26 21.78 10.97 21.92 10.63L22 10.39L21.81 10.25ZM3.85 11.24H5.61C5.69 11.24 5.77 11.17 5.77 11.08V9.49996C5.77 9.41996 5.7 9.33996 5.61 9.33996H3.85C3.76 9.33996 3.69 9.40996 3.69 9.49996V11.08C3.7 11.17 3.76 11.24 3.85 11.24ZM6.28 11.24H8.04C8.12 11.24 8.2 11.17 8.2 11.08V9.49996C8.2 9.41996 8.13 9.33996 8.04 9.33996H6.28C6.19 9.33996 6.12 9.40996 6.12 9.49996V11.08C6.13 11.17 6.19 11.24 6.28 11.24ZM8.75 11.24H10.5C10.6 11.24 10.67 11.17 10.67 11.08V9.49996C10.67 9.41996 10.61 9.33996 10.5 9.33996H8.75C8.67 9.33996 8.6 9.40996 8.6 9.49996V11.08C8.6 11.17 8.66 11.24 8.75 11.24ZM11.19 11.24H12.96C13.04 11.24 13.11 11.17 13.11 11.08V9.49996C13.11 9.41996 13.05 9.33996 12.96 9.33996H11.19C11.11 9.33996 11.04 9.40996 11.04 9.49996V11.08C11.04 11.17 11.11 11.24 11.19 11.24ZM6.28 8.99996H8.04C8.12 8.99996 8.2 8.90996 8.2 8.81996V7.24996C8.2 7.15996 8.13 7.08996 8.04 7.08996H6.28C6.19 7.08996 6.12 7.14996 6.12 7.24996V8.81996C6.13 8.90996 6.19 8.99996 6.28 8.99996ZM8.75 8.99996H10.5C10.6 8.99996 10.67 8.90996 10.67 8.81996V7.24996C10.67 7.15996 10.61 7.08996 10.5 7.08996H8.75C8.67 7.08996 8.6 7.14996 8.6 7.24996V8.81996C8.6 8.90996 8.66 8.99996 8.75 8.99996ZM11.19 8.99996H12.96C13.04 8.99996 13.11 8.90996 13.11 8.81996V7.24996C13.11 7.15996 13.04 7.08996 12.96 7.08996H11.19C11.11 7.08996 11.04 7.14996 11.04 7.24996V8.81996C11.04 8.90996 11.11 8.99996 11.19 8.99996ZM11.19 6.71996H12.96C13.04 6.71996 13.11 6.64996 13.11 6.55996V4.99996C13.11 4.89996 13.04 4.82996 12.96 4.82996H11.19C11.11 4.82996 11.04 4.88996 11.04 4.99996V6.55996C11.04 6.63996 11.11 6.71996 11.19 6.71996ZM13.65 11.24H15.41C15.5 11.24 15.57 11.17 15.57 11.08V9.49996C15.57 9.41996 15.5 9.33996 15.41 9.33996H13.65C13.57 9.33996 13.5 9.40996 13.5 9.49996V11.08C13.5 11.17 13.57 11.24 13.65 11.24Z" fill="currentColor"/>
</svg>
