<svg width="256" height="256" viewBox="0 0 256 256" fill="none" xmlns="http://www.w3.org/2000/svg">
<g clip-path="url(#clip0_30_24)">
<path d="M31.1012 119.718C31.389 120.766 31.3449 121.877 30.9749 122.899C30.605 123.921 29.9273 124.804 29.0353 125.425L14.0751 136.008L12.4104 154.26C12.3118 155.341 11.884 156.366 11.1847 157.196C10.4854 158.026 9.54827 158.622 8.49975 158.903C7.45124 159.184 6.34179 159.136 5.32111 158.767C4.30043 158.398 3.41764 157.724 2.79184 156.838L-7.81452 141.873L-26.0698 140.211C-27.1508 140.112 -28.1755 139.685 -29.0058 138.986C-29.836 138.287 -30.4317 137.35 -30.7126 136.301C-30.9935 135.253 -30.946 134.144 -30.5766 133.123C-30.2071 132.103 -29.5335 131.22 -28.6465 130.594L-13.6786 119.988L-12.0139 101.736C-11.9153 100.655 -11.4875 99.6308 -10.7882 98.8006C-10.0889 97.9705 -9.15181 97.3748 -8.10329 97.0938C-7.05478 96.8129 -5.94534 96.8602 -4.92466 97.2295C-3.90398 97.5988 -3.02118 98.2722 -2.39539 99.1589L8.21097 114.123L26.4662 115.786C27.551 115.881 28.5794 116.31 29.4096 117.014C30.2399 117.719 30.8309 118.663 31.1012 119.718Z" fill="white"/>
<path d="M287.101 119.91C287.389 120.958 287.345 122.069 286.975 123.091C286.605 124.113 285.927 124.996 285.035 125.617L270.075 136.2L268.41 154.452C268.312 155.533 267.884 156.558 267.185 157.388C266.485 158.218 265.548 158.814 264.5 159.095C263.451 159.376 262.342 159.328 261.321 158.959C260.3 158.59 259.418 157.916 258.792 157.029L248.185 142.065L229.93 140.403C228.849 140.304 227.824 139.877 226.994 139.178C226.164 138.479 225.568 137.542 225.287 136.493C225.006 135.445 225.054 134.336 225.423 133.315C225.793 132.295 226.467 131.412 227.353 130.786L242.321 120.18L243.986 101.928C244.085 100.847 244.512 99.8227 245.212 98.9925C245.911 98.1624 246.848 97.5667 247.897 97.2857C248.945 97.0048 250.055 97.0521 251.075 97.4214C252.096 97.7907 252.979 98.4641 253.605 99.3508L264.211 114.315L282.466 115.977C283.551 116.072 284.579 116.502 285.41 117.206C286.24 117.91 286.831 118.855 287.101 119.91Z" fill="white"/>
<path d="M159.101 -8.09029C159.389 -7.04225 159.345 -5.93076 158.975 -4.90875C158.605 -3.88674 157.927 -3.00444 157.035 -2.38324L142.075 8.20001L140.41 26.4522C140.312 27.533 139.884 28.5576 139.185 29.3877C138.485 30.2179 137.548 30.8136 136.5 31.0946C135.451 31.3755 134.342 31.3282 133.321 30.9589C132.3 30.5896 131.418 29.9162 130.792 29.0294L120.185 14.0653L101.93 12.4028C100.849 12.3043 99.8245 11.8767 98.9942 11.1776C98.164 10.4786 97.5683 9.54166 97.2874 8.49336C97.0065 7.44506 97.054 6.33581 97.4234 5.31527C97.7929 4.29474 98.4665 3.41203 99.3535 2.78626L114.321 -7.81975L115.986 -26.0719C116.085 -27.1527 116.512 -28.1773 117.212 -29.0075C117.911 -29.8376 118.848 -30.4334 119.897 -30.7143C120.945 -30.9953 122.055 -30.9479 123.075 -30.5786C124.096 -30.2093 124.979 -29.5359 125.605 -28.6492L136.211 -13.685L154.466 -12.0226C155.551 -11.9276 156.579 -11.4983 157.41 -10.7939C158.24 -10.0896 158.831 -9.14489 159.101 -8.09029Z" fill="white"/>
<path d="M159.101 247.91C159.389 248.958 159.345 250.069 158.975 251.091C158.605 252.113 157.927 252.996 157.035 253.617L142.075 264.2L140.41 282.452C140.312 283.533 139.884 284.558 139.185 285.388C138.485 286.218 137.548 286.814 136.5 287.095C135.451 287.376 134.342 287.328 133.321 286.959C132.3 286.59 131.418 285.916 130.792 285.029L120.185 270.065L101.93 268.403C100.849 268.304 99.8245 267.877 98.9942 267.178C98.164 266.479 97.5683 265.542 97.2874 264.493C97.0065 263.445 97.054 262.336 97.4234 261.315C97.7929 260.295 98.4665 259.412 99.3535 258.786L114.321 248.18L115.986 229.928C116.085 228.847 116.512 227.823 117.212 226.993C117.911 226.162 118.848 225.567 119.897 225.286C120.945 225.005 122.055 225.052 123.075 225.421C124.096 225.791 124.979 226.464 125.605 227.351L136.211 242.315L154.466 243.977C155.551 244.072 156.579 244.502 157.41 245.206C158.24 245.91 158.831 246.855 159.101 247.91Z" fill="white"/>
</g>
<defs>
<clipPath id="clip0_30_24">
<rect width="256" height="256" fill="white"/>
</clipPath>
</defs>
</svg>
